<svg width="115" height="117" viewBox="0 0 115 117" fill="none" xmlns="http://www.w3.org/2000/svg">
<g opacity="0.21">
<path d="M71.3305 58.5C71.3305 66.1925 65.1384 72.4286 57.5 72.4286C49.8616 72.4286 43.6695 66.1925 43.6695 58.5C43.6695 50.8075 49.8616 44.5714 57.5 44.5714C65.1384 44.5714 71.3305 50.8075 71.3305 58.5Z" fill="white"/>
<path fill-rule="evenodd" clip-rule="evenodd" d="M57.5 117C86.7638 117 110.973 95.207 115 66.8571H80.9784C77.5609 76.5948 68.3394 83.5714 57.5 83.5714C46.6606 83.5714 37.4392 76.5948 34.0216 66.8571H0C4.02659 95.207 28.2362 117 57.5 117ZM34.0216 50.1429H0C4.02659 21.793 28.2362 0 57.5 0C86.7638 0 110.973 21.793 115 50.1429H80.9784C77.5609 40.4052 68.3394 33.4286 57.5 33.4286C46.6606 33.4286 37.4392 40.4052 34.0216 50.1429ZM71.3305 58.5C71.3305 66.1925 65.1384 72.4286 57.5 72.4286C49.8616 72.4286 43.6695 66.1925 43.6695 58.5C43.6695 50.8075 49.8616 44.5714 57.5 44.5714C65.1384 44.5714 71.3305 50.8075 71.3305 58.5Z" fill="white"/>
</g>
</svg>
